<svg xmlns="http://www.w3.org/2000/svg" viewBox="0 0 980 660" font-family="'Segoe UI',Helvetica,Arial,sans-serif">
<rect width="980" height="660" fill="#0f1113"/>
<text x="70" y="32" fill="#e8e6e1" font-size="20" font-weight="700" letter-spacing="1.5">Yngcong Residence — Axonometric</text>
<text x="70" y="50" fill="#646a72" font-size="11.5" letter-spacing="0.5">3-storey industrial-modern home · 402 m² corner lot · Roxas City, Capiz</text><polygon points="452,215 770.6973485926735,399 528.2102355330306,539 209.51288694035716,355" fill="#1d2a1c" stroke="#2f4a2c" stroke-width="1.5"/><polygon points="479.71281292110206,231 565.6225329765183,280.59999999999997 468.6276877526612,336.59999999999997 382.7179676972449,287" fill="#26292e"/><polygon points="636.2902059253286,465.4 578.0932987910143,498.99999999999994 578.0932987910143,457.3999999999999 636.2902059253286,423.79999999999995" fill="#1c1812" stroke="#0c0d0f" stroke-width="1.3"/><polygon points="573.936376852849,429.4 636.2902059253286,465.4 636.2902059253286,423.79999999999995 573.936376852849,387.79999999999995" fill="#1c1812" stroke="#0c0d0f" stroke-width="1.3"/><polygon points="573.936376852849,387.79999999999995 636.2902059253286,423.79999999999995 578.0932987910143,457.3999999999999 515.7394697185347,421.4" fill="#2a241d" stroke="#0c0d0f" stroke-width="1.3"/><line x1="666.7743001385409" y1="419" x2="666.7743001385409" y2="377.4" stroke="#3a4a33" stroke-width="3"/><circle cx="666.7743001385409" cy="377.4" r="11" fill="#26381f" stroke="#2f4a2c"/><line x1="482.48409421321224" y1="464.59999999999997" x2="482.48409421321224" y2="422.99999999999994" stroke="#3a4a33" stroke-width="3"/><circle cx="482.48409421321224" cy="422.99999999999994" r="11" fill="#26381f" stroke="#2f4a2c"/><line x1="535.1384387633061" y1="502.99999999999994" x2="535.1384387633061" y2="461.3999999999999" stroke="#3a4a33" stroke-width="3"/><circle cx="535.1384387633061" cy="461.3999999999999" r="11" fill="#26381f" stroke="#2f4a2c"/><line x1="591.9497052515653" y1="334.2" x2="591.9497052515653" y2="292.59999999999997" stroke="#3a4a33" stroke-width="3"/><circle cx="591.9497052515653" cy="292.59999999999997" r="11" fill="#26381f" stroke="#2f4a2c"/><polygon points="569.7794549146837,395 424.28718707889794,478.99999999999994 424.28718707889794,421.3999999999999 569.7794549146837,337.4" fill="rgba(91,182,214,0.22)" stroke="#0c0d0f" stroke-width="1.3"/><line x1="540.6810013475265" y1="411.8" x2="540.6810013475265" y2="354.2" stroke="#0c0d0f" stroke-width="1"/><line x1="511.5825477803694" y1="428.59999999999997" x2="511.5825477803694" y2="370.99999999999994" stroke="#0c0d0f" stroke-width="1"/><line x1="482.48409421321224" y1="445.4" x2="482.48409421321224" y2="387.79999999999995" stroke="#0c0d0f" stroke-width="1"/><line x1="453.3856406460551" y1="462.19999999999993" x2="453.3856406460551" y2="404.5999999999999" stroke="#0c0d0f" stroke-width="1"/><line x1="569.7794549146837" y1="380.6" x2="424.28718707889794" y2="464.5999999999999" stroke="#0c0d0f" stroke-width="1"/><line x1="569.7794549146837" y1="366.2" x2="424.28718707889794" y2="450.19999999999993" stroke="#0c0d0f" stroke-width="1"/><line x1="569.7794549146837" y1="351.79999999999995" x2="424.28718707889794" y2="435.79999999999995" stroke="#0c0d0f" stroke-width="1"/><polygon points="382.7179676972449,287 569.7794549146837,395 569.7794549146837,337.4 382.7179676972449,229.4" fill="rgba(91,182,214,0.22)" stroke="#0c0d0f" stroke-width="1.3"/><line x1="420.13026514073266" y1="308.6" x2="420.13026514073266" y2="251" stroke="#0c0d0f" stroke-width="1"/><line x1="457.54256258422043" y1="330.2" x2="457.54256258422043" y2="272.6" stroke="#0c0d0f" stroke-width="1"/><line x1="494.95486002770815" y1="351.8" x2="494.95486002770815" y2="294.2" stroke="#0c0d0f" stroke-width="1"/><line x1="532.3671574711959" y1="373.4" x2="532.3671574711959" y2="315.79999999999995" stroke="#0c0d0f" stroke-width="1"/><line x1="382.7179676972449" y1="272.6" x2="569.7794549146837" y2="380.6" stroke="#0c0d0f" stroke-width="1"/><line x1="382.7179676972449" y1="258.2" x2="569.7794549146837" y2="366.2" stroke="#0c0d0f" stroke-width="1"/><line x1="382.7179676972449" y1="243.8" x2="569.7794549146837" y2="351.79999999999995" stroke="#0c0d0f" stroke-width="1"/><polygon points="382.7179676972449,229.4 569.7794549146837,337.4 424.28718707889794,421.3999999999999 237.2256998614592,313.4" fill="#2c3036" stroke="#0c0d0f" stroke-width="1.3"/><polygon points="569.7794549146837,337.4 424.28718707889794,421.3999999999999 424.28718707889794,370.19999999999993 569.7794549146837,286.2" fill="rgba(91,182,214,0.22)" stroke="#0c0d0f" stroke-width="1.3"/><line x1="540.6810013475265" y1="354.2" x2="540.6810013475265" y2="303" stroke="#0c0d0f" stroke-width="1"/><line x1="511.5825477803694" y1="370.99999999999994" x2="511.5825477803694" y2="319.79999999999995" stroke="#0c0d0f" stroke-width="1"/><line x1="482.48409421321224" y1="387.79999999999995" x2="482.48409421321224" y2="336.59999999999997" stroke="#0c0d0f" stroke-width="1"/><line x1="453.3856406460551" y1="404.5999999999999" x2="453.3856406460551" y2="353.4" stroke="#0c0d0f" stroke-width="1"/><line x1="569.7794549146837" y1="324.59999999999997" x2="424.28718707889794" y2="408.5999999999999" stroke="#0c0d0f" stroke-width="1"/><line x1="569.7794549146837" y1="311.79999999999995" x2="424.28718707889794" y2="395.79999999999995" stroke="#0c0d0f" stroke-width="1"/><line x1="569.7794549146837" y1="299" x2="424.28718707889794" y2="382.99999999999994" stroke="#0c0d0f" stroke-width="1"/><polygon points="382.7179676972449,229.4 569.7794549146837,337.4 569.7794549146837,286.2 382.7179676972449,178.2" fill="rgba(91,182,214,0.22)" stroke="#0c0d0f" stroke-width="1.3"/><line x1="420.13026514073266" y1="251" x2="420.13026514073266" y2="199.79999999999998" stroke="#0c0d0f" stroke-width="1"/><line x1="457.54256258422043" y1="272.6" x2="457.54256258422043" y2="221.39999999999998" stroke="#0c0d0f" stroke-width="1"/><line x1="494.95486002770815" y1="294.2" x2="494.95486002770815" y2="243" stroke="#0c0d0f" stroke-width="1"/><line x1="532.3671574711959" y1="315.79999999999995" x2="532.3671574711959" y2="264.6" stroke="#0c0d0f" stroke-width="1"/><line x1="382.7179676972449" y1="216.6" x2="569.7794549146837" y2="324.59999999999997" stroke="#0c0d0f" stroke-width="1"/><line x1="382.7179676972449" y1="203.8" x2="569.7794549146837" y2="311.79999999999995" stroke="#0c0d0f" stroke-width="1"/><line x1="382.7179676972449" y1="191" x2="569.7794549146837" y2="299" stroke="#0c0d0f" stroke-width="1"/><polygon points="382.7179676972449,178.2 569.7794549146837,286.2 424.28718707889794,370.19999999999993 237.2256998614592,262.2" fill="#33373d" stroke="#0c0d0f" stroke-width="1.3"/><polygon points="382.7179676972449,178.2 569.7794549146837,286.2 424.28718707889794,370.19999999999993 237.2256998614592,262.2" fill="#3a3f45" stroke="#0c0d0f" stroke-width="1"/><polygon points="528.2102355330306,310.2 424.28718707889794,370.19999999999993 424.28718707889794,282.19999999999993 528.2102355330306,222.2" fill="rgba(91,182,214,0.22)" stroke="#0c0d0f" stroke-width="1.3"/><line x1="507.4256258422041" y1="322.2" x2="507.4256258422041" y2="234.2" stroke="#0c0d0f" stroke-width="1"/><line x1="486.6410161513776" y1="334.2" x2="486.6410161513776" y2="246.19999999999996" stroke="#0c0d0f" stroke-width="1"/><line x1="465.85640646055106" y1="346.19999999999993" x2="465.85640646055106" y2="258.19999999999993" stroke="#0c0d0f" stroke-width="1"/><line x1="445.0717967697245" y1="358.19999999999993" x2="445.0717967697245" y2="270.19999999999993" stroke="#0c0d0f" stroke-width="1"/><line x1="528.2102355330306" y1="288.2" x2="424.28718707889794" y2="348.19999999999993" stroke="#0c0d0f" stroke-width="1"/><line x1="528.2102355330306" y1="266.2" x2="424.28718707889794" y2="326.19999999999993" stroke="#0c0d0f" stroke-width="1"/><line x1="528.2102355330306" y1="244.2" x2="424.28718707889794" y2="304.19999999999993" stroke="#0c0d0f" stroke-width="1"/><polygon points="403.5025773880714,238.2 528.2102355330306,310.2 528.2102355330306,222.2 403.5025773880714,150.2" fill="rgba(91,182,214,0.22)" stroke="#0c0d0f" stroke-width="1.3"/><line x1="428.4441090170633" y1="252.6" x2="428.4441090170633" y2="164.6" stroke="#0c0d0f" stroke-width="1"/><line x1="453.3856406460551" y1="267" x2="453.3856406460551" y2="179" stroke="#0c0d0f" stroke-width="1"/><line x1="478.32717227504696" y1="281.4" x2="478.32717227504696" y2="193.39999999999998" stroke="#0c0d0f" stroke-width="1"/><line x1="503.26870390403883" y1="295.8" x2="503.26870390403883" y2="207.79999999999998" stroke="#0c0d0f" stroke-width="1"/><line x1="403.5025773880714" y1="216.2" x2="528.2102355330306" y2="288.2" stroke="#0c0d0f" stroke-width="1"/><line x1="403.5025773880714" y1="194.2" x2="528.2102355330306" y2="266.2" stroke="#0c0d0f" stroke-width="1"/><line x1="403.5025773880714" y1="172.2" x2="528.2102355330306" y2="244.2" stroke="#0c0d0f" stroke-width="1"/><polygon points="403.5025773880714,150.2 528.2102355330306,222.2 424.28718707889794,282.19999999999993 299.5795289339388,210.2" fill="#2b2f34" stroke="#0c0d0f" stroke-width="1.3"/><line x1="382.7179676972449" y1="178.2" x2="569.7794549146837" y2="286.2" stroke="#0c0d0f" stroke-width="2"/><line x1="382.7179676972449" y1="160.2" x2="569.7794549146837" y2="268.2" stroke="#0c0d0f" stroke-width="2"/><circle cx="414.5877025565122" cy="215.79999999999995" r="2.5" fill="#d98a3d"/><line x1="414.5877025565122" y1="215.79999999999995" x2="432.5877025565122" y2="201.79999999999995" stroke="#646a72" stroke-width="0.7"/><text x="436.5877025565122" y="204.79999999999995" fill="#5bb6d6" font-size="11" font-weight="600" text-anchor="start">3F · Entertainment — high glass, double height</text><circle cx="548.9948452238572" cy="298.2" r="2.5" fill="#d98a3d"/><line x1="548.9948452238572" y1="298.2" x2="584.9948452238572" y2="292.2" stroke="#646a72" stroke-width="0.7"/><text x="588.9948452238572" y="295.2" fill="#e8e6e1" font-size="11" font-weight="600" text-anchor="start">Roof-terrace balcony</text><circle cx="535.1384387633061" cy="341.4" r="2.5" fill="#d98a3d"/><line x1="535.1384387633061" y1="341.4" x2="571.1384387633061" y2="345.4" stroke="#646a72" stroke-width="0.7"/><text x="575.1384387633061" y="348.4" fill="#646a72" font-size="11" font-weight="600" text-anchor="start">Bedrooms</text><circle cx="569.7794549146837" cy="382.2" r="2.5" fill="#d98a3d"/><line x1="569.7794549146837" y1="382.2" x2="599.7794549146837" y2="392.2" stroke="#646a72" stroke-width="0.7"/><text x="603.7794549146837" y="395.2" fill="#646a72" font-size="11" font-weight="600" text-anchor="start">Living — full-height glass</text><circle cx="548.9948452238572" cy="413.4" r="2.5" fill="#d98a3d"/><line x1="548.9948452238572" y1="413.4" x2="564.9948452238572" y2="403.4" stroke="#646a72" stroke-width="0.7"/><text x="568.9948452238572" y="406.4" fill="#d98a3d" font-size="11" font-weight="600" text-anchor="start">Event pavilion</text><circle cx="555.9230484541326" cy="347" r="2.5" fill="#d98a3d"/><line x1="555.9230484541326" y1="347" x2="555.9230484541326" y2="363" stroke="#646a72" stroke-width="0.7"/><text x="559.9230484541326" y="366" fill="#2f4a2c" font-size="11" font-weight="600" text-anchor="middle">Event lawn</text><circle cx="120" cy="110" r="26" fill="none" stroke="#d98a3d" stroke-width="1.5"/><line x1="150" y1="110" x2="158" y2="110" stroke="#d98a3d" stroke-width="1.2"/><line x1="145.98076211353316" y1="125" x2="152.9089653438087" y2="129" stroke="#d98a3d" stroke-width="1.2"/><line x1="135" y1="135.98076211353316" x2="139" y2="142.90896534380866" stroke="#d98a3d" stroke-width="1.2"/><line x1="120" y1="140" x2="120" y2="148" stroke="#d98a3d" stroke-width="1.2"/><line x1="105" y1="135.98076211353316" x2="101" y2="142.9089653438087" stroke="#d98a3d" stroke-width="1.2"/><line x1="94.01923788646684" y1="125" x2="87.09103465619133" y2="129" stroke="#d98a3d" stroke-width="1.2"/><line x1="90" y1="110" x2="82" y2="110" stroke="#d98a3d" stroke-width="1.2"/><line x1="94.01923788646684" y1="95.00000000000001" x2="87.09103465619133" y2="91.00000000000001" stroke="#d98a3d" stroke-width="1.2"/><line x1="104.99999999999999" y1="84.01923788646684" x2="100.99999999999999" y2="77.09103465619134" stroke="#d98a3d" stroke-width="1.2"/><line x1="120" y1="80" x2="120" y2="72" stroke="#d98a3d" stroke-width="1.2"/><line x1="135" y1="84.01923788646684" x2="139" y2="77.09103465619134" stroke="#d98a3d" stroke-width="1.2"/><line x1="145.98076211353316" y1="94.99999999999999" x2="152.90896534380866" y2="90.99999999999999" stroke="#d98a3d" stroke-width="1.2"/></svg>