<svg xmlns="http://www.w3.org/2000/svg" viewBox="0 0 569 586.2" font-family="'Segoe UI',Helvetica,Arial,sans-serif">
<rect width="569" height="586.2" fill="#0f1113"/>
<text x="70" y="32" fill="#e8e6e1" font-size="20" font-weight="700" letter-spacing="1.5">Front Elevation (Garden / South-East)</text>
<text x="70" y="50" fill="#646a72" font-size="11.5" letter-spacing="0.5">Industrial modern · exposed concrete + black steel + high glass · scale 1:100</text><line x1="50" y1="478.20000000000005" x2="549" y2="478.20000000000005" stroke="#e8e6e1" stroke-width="2.5"/><rect x="70" y="355.80000000000007" width="210.8" height="122.4" fill="#3a3f45" stroke="#0c0d0f" stroke-width="1.5"/><rect x="87" y="389.80000000000007" width="176.8" height="81.6" fill="#191b1e" stroke="#0c0d0f" stroke-width="1.5"/><line x1="116.46666666666667" y1="389.80000000000007" x2="116.46666666666667" y2="478.20000000000005" stroke="#0c0d0f" stroke-width="1"/><line x1="145.93333333333334" y1="389.80000000000007" x2="145.93333333333334" y2="478.20000000000005" stroke="#0c0d0f" stroke-width="1"/><line x1="175.4" y1="389.80000000000007" x2="175.4" y2="478.20000000000005" stroke="#0c0d0f" stroke-width="1"/><line x1="204.86666666666667" y1="389.80000000000007" x2="204.86666666666667" y2="478.20000000000005" stroke="#0c0d0f" stroke-width="1"/><line x1="234.33333333333334" y1="389.80000000000007" x2="234.33333333333334" y2="478.20000000000005" stroke="#0c0d0f" stroke-width="1"/><rect x="287.6" y="355.80000000000007" width="241.39999999999998" height="122.4" fill="rgba(91,182,214,0.16)" stroke="#0c0d0f" stroke-width="2"/><line x1="335.88" y1="355.80000000000007" x2="335.88" y2="478.20000000000005" stroke="#0c0d0f" stroke-width="1.6"/><line x1="384.16" y1="355.80000000000007" x2="384.16" y2="478.20000000000005" stroke="#0c0d0f" stroke-width="1.6"/><line x1="432.44" y1="355.80000000000007" x2="432.44" y2="478.20000000000005" stroke="#0c0d0f" stroke-width="1.6"/><line x1="480.72" y1="355.80000000000007" x2="480.72" y2="478.20000000000005" stroke="#0c0d0f" stroke-width="1.6"/><line x1="287.6" y1="417.00000000000006" x2="529" y2="417.00000000000006" stroke="#0c0d0f" stroke-width="1.6"/><rect x="70" y="247.00000000000003" width="459" height="108.80000000000001" fill="#3a3f45" stroke="#0c0d0f" stroke-width="1.5"/><rect x="90.4" y="259" width="136" height="84.80000000000001" fill="rgba(91,182,214,0.16)" stroke="#0c0d0f" stroke-width="2"/><line x1="135.73333333333335" y1="259" x2="135.73333333333335" y2="343.8" stroke="#0c0d0f" stroke-width="1.6"/><line x1="181.06666666666666" y1="259" x2="181.06666666666666" y2="343.8" stroke="#0c0d0f" stroke-width="1.6"/><rect x="362.4" y="259" width="149.60000000000002" height="84.80000000000001" fill="rgba(91,182,214,0.16)" stroke="#0c0d0f" stroke-width="2"/><line x1="399.79999999999995" y1="259" x2="399.79999999999995" y2="343.8" stroke="#0c0d0f" stroke-width="1.6"/><line x1="437.2" y1="259" x2="437.2" y2="343.8" stroke="#0c0d0f" stroke-width="1.6"/><line x1="474.6" y1="259" x2="474.6" y2="343.8" stroke="#0c0d0f" stroke-width="1.6"/><line x1="362.4" y1="353.80000000000007" x2="529" y2="353.80000000000007" stroke="#0c0d0f" stroke-width="2.5"/><line x1="362.4" y1="353.80000000000007" x2="362.4" y2="333.80000000000007" stroke="#0c0d0f" stroke-width="1.2"/><line x1="380.9111111111111" y1="353.80000000000007" x2="380.9111111111111" y2="333.80000000000007" stroke="#0c0d0f" stroke-width="1.2"/><line x1="399.4222222222222" y1="353.80000000000007" x2="399.4222222222222" y2="333.80000000000007" stroke="#0c0d0f" stroke-width="1.2"/><line x1="417.93333333333334" y1="353.80000000000007" x2="417.93333333333334" y2="333.80000000000007" stroke="#0c0d0f" stroke-width="1.2"/><line x1="436.44444444444446" y1="353.80000000000007" x2="436.44444444444446" y2="333.80000000000007" stroke="#0c0d0f" stroke-width="1.2"/><line x1="454.9555555555555" y1="353.80000000000007" x2="454.9555555555555" y2="333.80000000000007" stroke="#0c0d0f" stroke-width="1.2"/><line x1="473.46666666666664" y1="353.80000000000007" x2="473.46666666666664" y2="333.80000000000007" stroke="#0c0d0f" stroke-width="1.2"/><line x1="491.97777777777776" y1="353.80000000000007" x2="491.97777777777776" y2="333.80000000000007" stroke="#0c0d0f" stroke-width="1.2"/><line x1="510.4888888888889" y1="353.80000000000007" x2="510.4888888888889" y2="333.80000000000007" stroke="#0c0d0f" stroke-width="1.2"/><line x1="529" y1="353.80000000000007" x2="529" y2="333.80000000000007" stroke="#0c0d0f" stroke-width="1.2"/><rect x="70" y="60" width="153" height="187" fill="#3a3f45" stroke="#0c0d0f" stroke-width="1.5"/><rect x="223" y="60" width="306" height="187" fill="rgba(91,182,214,0.16)" stroke="#0c0d0f" stroke-width="2"/><line x1="274" y1="60" x2="274" y2="247" stroke="#0c0d0f" stroke-width="1.6"/><line x1="325" y1="60" x2="325" y2="247" stroke="#0c0d0f" stroke-width="1.6"/><line x1="376" y1="60" x2="376" y2="247" stroke="#0c0d0f" stroke-width="1.6"/><line x1="427" y1="60" x2="427" y2="247" stroke="#0c0d0f" stroke-width="1.6"/><line x1="478" y1="60" x2="478" y2="247" stroke="#0c0d0f" stroke-width="1.6"/><line x1="223" y1="106.75" x2="529" y2="106.75" stroke="#0c0d0f" stroke-width="1.6"/><line x1="223" y1="153.5" x2="529" y2="153.5" stroke="#0c0d0f" stroke-width="1.6"/><line x1="223" y1="200.25" x2="529" y2="200.25" stroke="#0c0d0f" stroke-width="1.6"/><rect x="70" y="50" width="459" height="10" fill="#0c0d0f"/><line x1="70" y1="245.00000000000003" x2="223" y2="245.00000000000003" stroke="#0c0d0f" stroke-width="2.5"/><g stroke="#8a9099" stroke-width="1" fill="#8a9099" font-size="10">
<line x1="551" y1="478.20000000000005" x2="551" y2="60"/>
<line x1="547" y1="478.20000000000005" x2="555" y2="478.20000000000005"/><line x1="547" y1="60" x2="555" y2="60"/>
<text x="555" y="269.1" transform="rotate(90 555 269.1)" text-anchor="middle">12.3 m overall</text></g><text x="60" y="417.00000000000006" fill="#646a72" font-size="9.5" text-anchor="end">GF 3.6</text><text x="60" y="301.40000000000003" fill="#646a72" font-size="9.5" text-anchor="end">2F 3.2</text><text x="60" y="153.5" fill="#646a72" font-size="9.5" text-anchor="end">3F 5.5</text><g stroke="#e8e6e1" stroke-width="1.4" fill="#e8e6e1" font-size="10"><line x1="70" y1="560.2" x2="240" y2="560.2"/><rect x="70" y="556.2" width="34" height="8" fill="#e8e6e1" stroke="#e8e6e1" stroke-width="0.8"/><rect x="104" y="556.2" width="34" height="8" fill="#0f1113" stroke="#e8e6e1" stroke-width="0.8"/><rect x="138" y="556.2" width="34" height="8" fill="#e8e6e1" stroke="#e8e6e1" stroke-width="0.8"/><rect x="172" y="556.2" width="34" height="8" fill="#0f1113" stroke="#e8e6e1" stroke-width="0.8"/><rect x="206" y="556.2" width="34" height="8" fill="#e8e6e1" stroke="#e8e6e1" stroke-width="0.8"/><text x="70" y="578.2" stroke="none">0</text><text x="236" y="578.2" stroke="none">5 m</text></g></svg>