<svg xmlns="http://www.w3.org/2000/svg" viewBox="0 0 515 545" font-family="'Segoe UI',Helvetica,Arial,sans-serif">
<rect width="515" height="545" fill="#0f1113"/>
<text x="70" y="32" fill="#e8e6e1" font-size="20" font-weight="700" letter-spacing="1.5">Ground Floor</text>
<text x="70" y="50" fill="#646a72" font-size="11.5" letter-spacing="0.5">142 m²  ·  slab-to-slab 3.6 m  ·  scale 1:100</text><rect x="70" y="195" width="186" height="180" fill="#1b1f24" stroke="#0a0b0c" stroke-width="3.2"/><text x="163" y="281" fill="#e8e6e1" font-size="11" font-weight="600" text-anchor="middle">Covered Garage</text><text x="163" y="294" fill="#646a72" font-size="8.5" text-anchor="middle" font-style="italic">2 cars</text><text x="163" y="307" fill="#8a9099" font-size="9" text-anchor="middle">37.2 m²</text><rect x="256" y="300" width="84" height="75" fill="#202428" stroke="#0a0b0c" stroke-width="3.2"/><text x="298" y="333.5" fill="#e8e6e1" font-size="11" font-weight="600" text-anchor="middle">Foyer</text><text x="298" y="346.5" fill="#646a72" font-size="8.5" text-anchor="middle" font-style="italic">double-height void</text><text x="298" y="359.5" fill="#8a9099" font-size="9" text-anchor="middle">7 m²</text><rect x="256" y="264" width="84" height="36" fill="#1b1f24" stroke="#0a0b0c" stroke-width="3.2"/><text x="298" y="281" fill="#e8e6e1" font-size="8.5" font-weight="600" text-anchor="middle">Powder</text><text x="298" y="291" fill="#8a9099" font-size="7.5" text-anchor="middle">3.4 m²</text><rect x="256" y="195" width="84" height="69" fill="#202428" stroke="#0a0b0c" stroke-width="3.2"/><text x="298" y="225.5" fill="#e8e6e1" font-size="11" font-weight="600" text-anchor="middle">Stair &amp; Elevator</text><text x="298" y="245.5" fill="#8a9099" font-size="9" text-anchor="middle">6.4 m²</text><rect x="340" y="195" width="135" height="180" fill="#1b1f24" stroke="#0a0b0c" stroke-width="3.2"/><line x1="340" y1="375" x2="475" y2="375" stroke="#5bb6d6" stroke-width="4.5"/><line x1="475" y1="195" x2="475" y2="375" stroke="#5bb6d6" stroke-width="4.5"/><text x="407.5" y="281" fill="#e8e6e1" font-size="11" font-weight="600" text-anchor="middle">Living</text><text x="407.5" y="301" fill="#8a9099" font-size="9" text-anchor="middle">27 m²</text><rect x="256" y="60" width="84" height="135" fill="#202428" stroke="#0a0b0c" stroke-width="3.2"/><text x="298" y="123.5" fill="#e8e6e1" font-size="11" font-weight="600" text-anchor="middle">Kitchen</text><text x="298" y="136.5" fill="#646a72" font-size="8.5" text-anchor="middle" font-style="italic">clean</text><text x="298" y="149.5" fill="#8a9099" font-size="9" text-anchor="middle">12.6 m²</text><rect x="340" y="60" width="135" height="135" fill="#1b1f24" stroke="#0a0b0c" stroke-width="3.2"/><line x1="475" y1="60" x2="475" y2="195" stroke="#5bb6d6" stroke-width="4.5"/><text x="407.5" y="123.5" fill="#e8e6e1" font-size="11" font-weight="600" text-anchor="middle">Dining</text><text x="407.5" y="143.5" fill="#8a9099" font-size="9" text-anchor="middle">20.3 m²</text><rect x="70" y="120" width="90" height="75" fill="#202428" stroke="#0a0b0c" stroke-width="3.2"/><text x="115" y="153.5" fill="#e8e6e1" font-size="11" font-weight="600" text-anchor="middle">Helper's Room</text><text x="115" y="173.5" fill="#8a9099" font-size="9" text-anchor="middle">7.5 m²</text><rect x="70" y="60" width="90" height="60" fill="#1b1f24" stroke="#0a0b0c" stroke-width="3.2"/><text x="115" y="86" fill="#e8e6e1" font-size="11" font-weight="600" text-anchor="middle">Service T&amp;B</text><text x="115" y="106" fill="#8a9099" font-size="9" text-anchor="middle">6 m²</text><rect x="160" y="60" width="96" height="135" fill="#202428" stroke="#0a0b0c" stroke-width="3.2"/><text x="208" y="123.5" fill="#e8e6e1" font-size="11" font-weight="600" text-anchor="middle">Dirty Kitchen / Laundry</text><text x="208" y="143.5" fill="#8a9099" font-size="9" text-anchor="middle">14.4 m²</text><rect x="340" y="375" width="135" height="78" fill="rgba(122,128,136,0.10)" stroke="#7a8088" stroke-width="1.6" stroke-dasharray="7 5"/><text x="407.5" y="410" fill="#7a8088" font-size="11" font-weight="600" text-anchor="middle">Lanai</text><text x="407.5" y="423" fill="#646a72" font-size="8.5" text-anchor="middle" font-style="italic">covered, open to garden</text><g stroke="#8a9099" stroke-width="1" fill="#8a9099" font-size="10">
<line x1="70" y1="479" x2="475" y2="479"/>
<line x1="70" y1="475" x2="70" y2="483"/>
<line x1="475" y1="475" x2="475" y2="483"/>
<text x="272.5" y="474" fill="#8a9099" text-anchor="middle">13.5 m</text></g><g stroke="#8a9099" stroke-width="1" fill="#8a9099" font-size="10">
<line x1="48" y1="60" x2="48" y2="375"/>
<line x1="44" y1="60" x2="52" y2="60"/>
<line x1="44" y1="375" x2="52" y2="375"/>
<text x="42" y="217.5" fill="#8a9099" text-anchor="middle" transform="rotate(-90 42 217.5)">10.5 m</text></g><g stroke="#e8e6e1" stroke-width="1.4" fill="#e8e6e1" font-size="10"><line x1="70" y1="515" x2="220" y2="515"/><rect x="70" y="511" width="30" height="8" fill="#e8e6e1" stroke="#e8e6e1" stroke-width="0.8"/><rect x="100" y="511" width="30" height="8" fill="#0f1113" stroke="#e8e6e1" stroke-width="0.8"/><rect x="130" y="511" width="30" height="8" fill="#e8e6e1" stroke="#e8e6e1" stroke-width="0.8"/><rect x="160" y="511" width="30" height="8" fill="#0f1113" stroke="#e8e6e1" stroke-width="0.8"/><rect x="190" y="511" width="30" height="8" fill="#e8e6e1" stroke="#e8e6e1" stroke-width="0.8"/><text x="70" y="533" stroke="none">0</text><text x="216" y="533" stroke="none">5 m</text></g><g transform="translate(455,493) rotate(0)">
<polygon points="0,-16 5,8 0,3 -5,8" fill="#e8e6e1"/>
<text x="0" y="-20" fill="#e8e6e1" font-size="11" font-weight="700" text-anchor="middle">N</text></g><g font-size="10" fill="#646a72"><rect x="295" y="505" width="16" height="6" fill="none" stroke="#5bb6d6" stroke-width="3"/><text x="317" y="511">full-height glazing</text></g></svg>