<svg xmlns="http://www.w3.org/2000/svg" viewBox="0 0 515 533" font-family="'Segoe UI',Helvetica,Arial,sans-serif">
<rect width="515" height="533" fill="#0f1113"/>
<text x="70" y="32" fill="#e8e6e1" font-size="20" font-weight="700" letter-spacing="1.5">Second Floor</text>
<text x="70" y="50" fill="#646a72" font-size="11.5" letter-spacing="0.5">142 m²  ·  slab-to-slab 3.2 m  ·  scale 1:100</text><rect x="70" y="270" width="135" height="105" fill="#1b1f24" stroke="#0a0b0c" stroke-width="3.2"/><text x="137.5" y="318.5" fill="#e8e6e1" font-size="11" font-weight="600" text-anchor="middle">Bedroom 2</text><text x="137.5" y="338.5" fill="#8a9099" font-size="9" text-anchor="middle">15.8 m²</text><rect x="70" y="165" width="135" height="105" fill="#202428" stroke="#0a0b0c" stroke-width="3.2"/><text x="137.5" y="213.5" fill="#e8e6e1" font-size="11" font-weight="600" text-anchor="middle">Bedroom 3</text><text x="137.5" y="233.5" fill="#8a9099" font-size="9" text-anchor="middle">15.8 m²</text><rect x="70" y="60" width="69" height="105" fill="#1b1f24" stroke="#0a0b0c" stroke-width="3.2"/><text x="104.5" y="111.5" fill="#e8e6e1" font-size="8.5" font-weight="600" text-anchor="middle">Shared Bath</text><text x="104.5" y="121.5" fill="#8a9099" font-size="7.5" text-anchor="middle">8 m²</text><rect x="139" y="60" width="66" height="105" fill="#202428" stroke="#0a0b0c" stroke-width="3.2"/><text x="172" y="111.5" fill="#e8e6e1" font-size="8.5" font-weight="600" text-anchor="middle">Linen</text><text x="172" y="121.5" fill="#8a9099" font-size="7.5" text-anchor="middle">7.7 m²</text><rect x="205" y="255" width="135" height="120" fill="#1b1f24" stroke="#0a0b0c" stroke-width="3.2"/><text x="272.5" y="311" fill="#e8e6e1" font-size="11" font-weight="600" text-anchor="middle">Family Lounge</text><text x="272.5" y="331" fill="#8a9099" font-size="9" text-anchor="middle">18 m²</text><rect x="205" y="165" width="135" height="90" fill="#202428" stroke="#0a0b0c" stroke-width="3.2"/><text x="272.5" y="206" fill="#e8e6e1" font-size="11" font-weight="600" text-anchor="middle">Stair, Elevator &amp; Hall</text><text x="272.5" y="226" fill="#8a9099" font-size="9" text-anchor="middle">13.5 m²</text><rect x="205" y="60" width="135" height="105" fill="#1b1f24" stroke="#0a0b0c" stroke-width="3.2"/><text x="272.5" y="108.5" fill="#e8e6e1" font-size="11" font-weight="600" text-anchor="middle">Bedroom 4</text><text x="272.5" y="128.5" fill="#8a9099" font-size="9" text-anchor="middle">15.8 m²</text><rect x="340" y="180" width="135" height="195" fill="#202428" stroke="#0a0b0c" stroke-width="3.2"/><line x1="340" y1="375" x2="475" y2="375" stroke="#5bb6d6" stroke-width="4.5"/><line x1="475" y1="180" x2="475" y2="375" stroke="#5bb6d6" stroke-width="4.5"/><text x="407.5" y="273.5" fill="#e8e6e1" font-size="11" font-weight="600" text-anchor="middle">Master Bedroom</text><text x="407.5" y="293.5" fill="#8a9099" font-size="9" text-anchor="middle">29.3 m²</text><rect x="340" y="60" width="66" height="120" fill="#1b1f24" stroke="#0a0b0c" stroke-width="3.2"/><text x="373" y="119" fill="#e8e6e1" font-size="8.5" font-weight="600" text-anchor="middle">Master Ensuite</text><text x="373" y="129" fill="#8a9099" font-size="7.5" text-anchor="middle">8.8 m²</text><rect x="406" y="60" width="69" height="120" fill="#202428" stroke="#0a0b0c" stroke-width="3.2"/><text x="440.5" y="119" fill="#e8e6e1" font-size="8.5" font-weight="600" text-anchor="middle">Walk-in Closet</text><text x="440.5" y="129" fill="#8a9099" font-size="7.5" text-anchor="middle">9.2 m²</text><rect x="340" y="375" width="135" height="66" fill="rgba(122,128,136,0.10)" stroke="#7a8088" stroke-width="1.6" stroke-dasharray="7 5"/><text x="407.5" y="404" fill="#7a8088" font-size="11" font-weight="600" text-anchor="middle">Master Balcony</text><g stroke="#8a9099" stroke-width="1" fill="#8a9099" font-size="10">
<line x1="70" y1="467" x2="475" y2="467"/>
<line x1="70" y1="463" x2="70" y2="471"/>
<line x1="475" y1="463" x2="475" y2="471"/>
<text x="272.5" y="462" fill="#8a9099" text-anchor="middle">13.5 m</text></g><g stroke="#8a9099" stroke-width="1" fill="#8a9099" font-size="10">
<line x1="48" y1="60" x2="48" y2="375"/>
<line x1="44" y1="60" x2="52" y2="60"/>
<line x1="44" y1="375" x2="52" y2="375"/>
<text x="42" y="217.5" fill="#8a9099" text-anchor="middle" transform="rotate(-90 42 217.5)">10.5 m</text></g><g stroke="#e8e6e1" stroke-width="1.4" fill="#e8e6e1" font-size="10"><line x1="70" y1="503" x2="220" y2="503"/><rect x="70" y="499" width="30" height="8" fill="#e8e6e1" stroke="#e8e6e1" stroke-width="0.8"/><rect x="100" y="499" width="30" height="8" fill="#0f1113" stroke="#e8e6e1" stroke-width="0.8"/><rect x="130" y="499" width="30" height="8" fill="#e8e6e1" stroke="#e8e6e1" stroke-width="0.8"/><rect x="160" y="499" width="30" height="8" fill="#0f1113" stroke="#e8e6e1" stroke-width="0.8"/><rect x="190" y="499" width="30" height="8" fill="#e8e6e1" stroke="#e8e6e1" stroke-width="0.8"/><text x="70" y="521" stroke="none">0</text><text x="216" y="521" stroke="none">5 m</text></g><g transform="translate(455,481) rotate(0)">
<polygon points="0,-16 5,8 0,3 -5,8" fill="#e8e6e1"/>
<text x="0" y="-20" fill="#e8e6e1" font-size="11" font-weight="700" text-anchor="middle">N</text></g><g font-size="10" fill="#646a72"><rect x="295" y="493" width="16" height="6" fill="none" stroke="#5bb6d6" stroke-width="3"/><text x="317" y="499">full-height glazing</text></g></svg>