<svg xmlns="http://www.w3.org/2000/svg" viewBox="0 0 597 586.2" font-family="'Segoe UI',Helvetica,Arial,sans-serif">
<rect width="597" height="586.2" fill="#0f1113"/>
<text x="70" y="32" fill="#e8e6e1" font-size="20" font-weight="700" letter-spacing="1.5">Section A–A (through stair &amp; entertainment hall)</text>
<text x="70" y="50" fill="#646a72" font-size="11.5" letter-spacing="0.5">Double-height 3rd-floor hall · scale 1:100</text><line x1="60" y1="478.20000000000005" x2="437" y2="478.20000000000005" stroke="#e8e6e1" stroke-width="2.5"/><rect x="70" y="60" width="357" height="418.20000000000005" fill="none" stroke="#e8e6e1" stroke-width="2.4"/><rect x="70" y="474.20000000000005" width="357" height="8" fill="#3a3f45"/><rect x="70" y="351.80000000000007" width="357" height="8" fill="#3a3f45"/><rect x="70" y="243.00000000000003" width="357" height="8" fill="#3a3f45"/><rect x="74" y="64" width="6" height="179" fill="rgba(91,182,214,0.16)" stroke="#0c0d0f" stroke-width="2"/><line x1="74" y1="108.75" x2="80" y2="108.75" stroke="#0c0d0f" stroke-width="1.6"/><line x1="74" y1="153.5" x2="80" y2="153.5" stroke="#0c0d0f" stroke-width="1.6"/><line x1="74" y1="198.25" x2="80" y2="198.25" stroke="#0c0d0f" stroke-width="1.6"/><rect x="417" y="64" width="6" height="179" fill="rgba(91,182,214,0.16)" stroke="#0c0d0f" stroke-width="1.5"/><text x="248.5" y="417.00000000000006" fill="#646a72" font-size="10" text-anchor="middle">Living / Foyer void</text><text x="248.5" y="301.40000000000003" fill="#646a72" font-size="10" text-anchor="middle">Bedrooms</text><text x="248.5" y="153.5" fill="#e8e6e1" font-size="12" font-weight="700" text-anchor="middle">ENTERTAINMENT HALL · 5.5 m</text><polyline fill="none" stroke="#646a72" stroke-width="1.6" points="83.6,478.20000000000005 87,478.20000000000005 87,464.26000000000005 90.4,464.26000000000005 90.4,450.32000000000005 93.80000000000001,450.32000000000005 93.80000000000001,436.38000000000005 97.20000000000002,436.38000000000005 97.20000000000002,422.44000000000005 100.60000000000002,422.44000000000005 100.60000000000002,408.50000000000006 104.00000000000003,408.50000000000006 104.00000000000003,394.56000000000006 107.40000000000003,394.56000000000006 107.40000000000003,380.62000000000006 110.80000000000004,380.62000000000006 110.80000000000004,366.68000000000006 114.20000000000005,366.68000000000006 114.20000000000005,352.74000000000007 117.60000000000005,352.74000000000007 117.60000000000005,338.80000000000007 121.00000000000006,338.80000000000007 121.00000000000006,324.86000000000007 124.40000000000006,324.86000000000007 124.40000000000006,310.9200000000001 127.80000000000007,310.9200000000001 127.80000000000007,296.9800000000001 131.20000000000007,296.9800000000001 131.20000000000007,283.0400000000001 134.60000000000008,283.0400000000001 134.60000000000008,269.1000000000001 138.00000000000009,269.1000000000001 138.00000000000009,255.16000000000008 141.4000000000001,255.16000000000008 141.4000000000001,241.22000000000008 144.8000000000001,241.22000000000008 144.8000000000001,227.2800000000001 148.2000000000001,227.2800000000001 148.2000000000001,213.3400000000001 151.6000000000001,213.3400000000001 151.6000000000001,199.4000000000001 155.0000000000001,199.4000000000001 155.0000000000001,185.4600000000001 158.40000000000012,185.4600000000001 158.40000000000012,171.5200000000001 161.80000000000013,171.5200000000001 161.80000000000013,157.5800000000001 165.20000000000013,157.5800000000001 165.20000000000013,143.6400000000001 168.60000000000014,143.6400000000001 168.60000000000014,129.7000000000001 172.00000000000014,129.7000000000001 172.00000000000014,115.7600000000001 175.40000000000015,115.7600000000001 175.40000000000015,101.8200000000001 178.80000000000015,101.8200000000001 178.80000000000015,87.88000000000011 182.20000000000016,87.88000000000011 182.20000000000016,73.94000000000011 185.60000000000016,73.94000000000011 "/><g stroke="#e8e6e1" stroke-width="1.4" fill="#e8e6e1" font-size="10"><line x1="70" y1="560.2" x2="240" y2="560.2"/><rect x="70" y="556.2" width="34" height="8" fill="#e8e6e1" stroke="#e8e6e1" stroke-width="0.8"/><rect x="104" y="556.2" width="34" height="8" fill="#0f1113" stroke="#e8e6e1" stroke-width="0.8"/><rect x="138" y="556.2" width="34" height="8" fill="#e8e6e1" stroke="#e8e6e1" stroke-width="0.8"/><rect x="172" y="556.2" width="34" height="8" fill="#0f1113" stroke="#e8e6e1" stroke-width="0.8"/><rect x="206" y="556.2" width="34" height="8" fill="#e8e6e1" stroke="#e8e6e1" stroke-width="0.8"/><text x="70" y="578.2" stroke="none">0</text><text x="236" y="578.2" stroke="none">5 m</text></g></svg>