<svg xmlns="http://www.w3.org/2000/svg" viewBox="0 0 738 607" font-family="'Segoe UI',Helvetica,Arial,sans-serif">
<rect width="738" height="607" fill="#0f1113"/>
<text x="70" y="32" fill="#e8e6e1" font-size="20" font-weight="700" letter-spacing="1.5">Site Development Plan</text>
<text x="70" y="50" fill="#646a72" font-size="11.5" letter-spacing="0.5">Lot 1-A, Blk 8 · 402 m² corner lot · Brgy. Tangub, Roxas City · scale 1:150</text><rect x="48" y="515" width="620" height="22" fill="#15171a"/><rect x="668" y="38" width="22" height="477" fill="#15171a"/><rect x="70" y="60" width="598" height="455" fill="#1d2a1c" stroke="#2f4a2c" stroke-width="2"/><rect x="122" y="60" width="351" height="273" fill="#23262b" stroke="#e8e6e1" stroke-width="2.4"/><text x="297.5" y="196.5" fill="#e8e6e1" font-size="9.5" font-weight="600" text-anchor="middle">House Footprint</text><rect x="122" y="333" width="161.20000000000002" height="182" fill="#26292e" stroke="#646a72" stroke-width="1" stroke-dasharray="4 4"/><text x="202.60000000000002" y="424" fill="#d98a3d" font-size="9.5" font-weight="600" text-anchor="middle">Driveway / Car Court</text><rect x="356" y="333" width="117" height="52" fill="#2a2622" stroke="#d98a3d" stroke-width="1.4"/><text x="414.5" y="359" fill="#d98a3d" font-size="9.5" font-weight="600" text-anchor="middle">Lanai</text><rect x="532.8" y="171.8" width="117" height="109.2" fill="#241f1a" stroke="#d98a3d" stroke-width="2"/><text x="591.3" y="226.4" fill="#d98a3d" font-size="9.5" font-weight="600" text-anchor="middle">Event Pavilion + Outdoor Kitchen</text><text x="297.5" y="231.5" fill="#646a72" font-size="9" text-anchor="middle">3 storeys · garage at front-left</text><text x="369" y="429.2" fill="#2f4a2c" font-size="14" font-weight="700" text-anchor="middle" letter-spacing="2">EVENT LAWN</text><circle cx="538" cy="411" r="9" fill="#24351f" stroke="#2f4a2c" stroke-width="1.5"/><circle cx="603" cy="372" r="9" fill="#24351f" stroke="#2f4a2c" stroke-width="1.5"/><circle cx="504.2" cy="138" r="9" fill="#24351f" stroke="#2f4a2c" stroke-width="1.5"/><circle cx="616" cy="112" r="9" fill="#24351f" stroke="#2f4a2c" stroke-width="1.5"/><circle cx="239" cy="437" r="9" fill="#24351f" stroke="#2f4a2c" stroke-width="1.5"/><circle cx="395" cy="452.59999999999997" r="9" fill="#24351f" stroke="#2f4a2c" stroke-width="1.5"/><line x1="122" y1="515" x2="283.2" y2="515" stroke="#d98a3d" stroke-width="4"/><text x="202.6" y="531" fill="#d98a3d" font-size="8.5" text-anchor="middle">VEHICULAR GATE</text><line x1="668" y1="-83" x2="668" y2="-161" stroke="#d98a3d" stroke-width="4"/><text x="662" y="-122" fill="#d98a3d" font-size="8.5" text-anchor="end">PEDESTRIAN GATE</text><text x="369" y="547" fill="#646a72" font-size="10" text-anchor="middle" letter-spacing="1">ROAD LOT 8  ·  SE  ·  12 m WIDE</text><text x="684" y="287.5" fill="#646a72" font-size="10" text-anchor="middle" letter-spacing="1" transform="rotate(90 684 287.5)">ROAD LOT 10  ·  NE  ·  12 m WIDE</text><text x="56" y="287.5" fill="#646a72" font-size="9" text-anchor="middle" transform="rotate(-90 56 287.5)">LOT 15, BLK 8 (adjacent)</text><text x="369" y="75" fill="#646a72" font-size="9" text-anchor="middle">rear boundary (NW)</text><g stroke="#e8e6e1" stroke-width="1.4" fill="#e8e6e1" font-size="10"><line x1="70" y1="579" x2="200" y2="579"/><rect x="70" y="575" width="26" height="8" fill="#e8e6e1" stroke="#e8e6e1" stroke-width="0.8"/><rect x="96" y="575" width="26" height="8" fill="#0f1113" stroke="#e8e6e1" stroke-width="0.8"/><rect x="122" y="575" width="26" height="8" fill="#e8e6e1" stroke="#e8e6e1" stroke-width="0.8"/><rect x="148" y="575" width="26" height="8" fill="#0f1113" stroke="#e8e6e1" stroke-width="0.8"/><rect x="174" y="575" width="26" height="8" fill="#e8e6e1" stroke="#e8e6e1" stroke-width="0.8"/><text x="70" y="597" stroke="none">0</text><text x="196" y="597" stroke="none">5 m</text></g><g transform="translate(684,557) rotate(18)">
<polygon points="0,-16 5,8 0,3 -5,8" fill="#e8e6e1"/>
<text x="0" y="-20" fill="#e8e6e1" font-size="11" font-weight="700" text-anchor="middle">N</text></g></svg>