<svg xmlns="http://www.w3.org/2000/svg" viewBox="0 0 515 467" font-family="'Segoe UI',Helvetica,Arial,sans-serif">
<rect width="515" height="467" fill="#0f1113"/>
<text x="70" y="32" fill="#e8e6e1" font-size="20" font-weight="700" letter-spacing="1.5">Third Floor — Entertainment</text>
<text x="70" y="50" fill="#646a72" font-size="11.5" letter-spacing="0.5">95 m²  ·  slab-to-slab 5.5 m  ·  scale 1:100</text><rect x="205" y="216" width="60" height="69" fill="#1b1f24" stroke="#0a0b0c" stroke-width="3.2"/><text x="235" y="249.5" fill="#e8e6e1" font-size="8.5" font-weight="600" text-anchor="middle">Stair &amp; Elevator</text><text x="235" y="259.5" fill="#8a9099" font-size="7.5" text-anchor="middle">4.6 m²</text><rect x="205" y="174.00000000000003" width="60" height="42" fill="#202428" stroke="#0a0b0c" stroke-width="3.2"/><text x="235" y="194.00000000000003" fill="#e8e6e1" font-size="8.5" font-weight="600" text-anchor="middle">Powder</text><text x="235" y="204.00000000000003" fill="#8a9099" font-size="7.5" text-anchor="middle">2.8 m²</text><rect x="205" y="117.00000000000001" width="60" height="57" fill="#1b1f24" stroke="#0a0b0c" stroke-width="3.2"/><text x="235" y="144.5" fill="#e8e6e1" font-size="8.5" font-weight="600" text-anchor="middle">Media / Lounge</text><text x="235" y="154.5" fill="#8a9099" font-size="7.5" text-anchor="middle">3.8 m²</text><rect x="205" y="60" width="60" height="57" fill="#202428" stroke="#0a0b0c" stroke-width="3.2"/><text x="235" y="87.5" fill="#e8e6e1" font-size="8.5" font-weight="600" text-anchor="middle">Bar / Pantry</text><text x="235" y="97.5" fill="#8a9099" font-size="7.5" text-anchor="middle">3.8 m²</text><rect x="265" y="60" width="210" height="225" fill="#1b1f24" stroke="#0a0b0c" stroke-width="3.2"/><line x1="265" y1="285" x2="475" y2="285" stroke="#5bb6d6" stroke-width="4.5"/><line x1="475" y1="60" x2="475" y2="285" stroke="#5bb6d6" stroke-width="4.5"/><line x1="265" y1="60" x2="475" y2="60" stroke="#5bb6d6" stroke-width="4.5"/><text x="370" y="168.5" fill="#e8e6e1" font-size="11" font-weight="600" text-anchor="middle">Entertainment Hall</text><text x="370" y="181.5" fill="#646a72" font-size="8.5" text-anchor="middle" font-style="italic">double-height, high glass</text><text x="370" y="194.5" fill="#8a9099" font-size="9" text-anchor="middle">52.5 m²</text><rect x="70" y="285" width="405" height="90" fill="rgba(122,128,136,0.10)" stroke="#7a8088" stroke-width="1.6" stroke-dasharray="7 5"/><text x="272.5" y="326" fill="#7a8088" font-size="11" font-weight="600" text-anchor="middle">Roof Terrace / Balcony</text><rect x="70" y="60" width="135" height="225" fill="rgba(122,128,136,0.10)" stroke="#7a8088" stroke-width="1.6" stroke-dasharray="7 5"/><text x="137.5" y="168.5" fill="#7a8088" font-size="11" font-weight="600" text-anchor="middle">Roof Terrace</text><g stroke="#8a9099" stroke-width="1" fill="#8a9099" font-size="10">
<line x1="70" y1="401" x2="475" y2="401"/>
<line x1="70" y1="397" x2="70" y2="405"/>
<line x1="475" y1="397" x2="475" y2="405"/>
<text x="272.5" y="396" fill="#8a9099" text-anchor="middle">13.5 m</text></g><g stroke="#8a9099" stroke-width="1" fill="#8a9099" font-size="10">
<line x1="48" y1="60" x2="48" y2="375"/>
<line x1="44" y1="60" x2="52" y2="60"/>
<line x1="44" y1="375" x2="52" y2="375"/>
<text x="42" y="217.5" fill="#8a9099" text-anchor="middle" transform="rotate(-90 42 217.5)">10.5 m</text></g><g stroke="#e8e6e1" stroke-width="1.4" fill="#e8e6e1" font-size="10"><line x1="70" y1="437" x2="220" y2="437"/><rect x="70" y="433" width="30" height="8" fill="#e8e6e1" stroke="#e8e6e1" stroke-width="0.8"/><rect x="100" y="433" width="30" height="8" fill="#0f1113" stroke="#e8e6e1" stroke-width="0.8"/><rect x="130" y="433" width="30" height="8" fill="#e8e6e1" stroke="#e8e6e1" stroke-width="0.8"/><rect x="160" y="433" width="30" height="8" fill="#0f1113" stroke="#e8e6e1" stroke-width="0.8"/><rect x="190" y="433" width="30" height="8" fill="#e8e6e1" stroke="#e8e6e1" stroke-width="0.8"/><text x="70" y="455" stroke="none">0</text><text x="216" y="455" stroke="none">5 m</text></g><g transform="translate(455,415) rotate(0)">
<polygon points="0,-16 5,8 0,3 -5,8" fill="#e8e6e1"/>
<text x="0" y="-20" fill="#e8e6e1" font-size="11" font-weight="700" text-anchor="middle">N</text></g><g font-size="10" fill="#646a72"><rect x="295" y="427" width="16" height="6" fill="none" stroke="#5bb6d6" stroke-width="3"/><text x="317" y="433">full-height glazing</text></g></svg>